<svg xmlns="http://www.w3.org/2000/svg" xmlns:xlink="http://www.w3.org/1999/xlink" width="412" height="98pt" viewBox="0 0 308.53 98"><g id="graph0" class="graph" transform="scale(1 1) rotate(0) translate(4 94)"><title>%3</title><polygon fill="#fff" stroke="none" points="-4 4 -4 -94 304.526 -94 304.526 4 -4 4"/><g id="node1" class="node"><title>output</title><polygon fill="#2980b9" stroke="#2980b9" points="76 -63 0 -63 0 -27 76 -27 76 -63"/><text x="38" y="-42.5" fill="#fff" font-family="Arial" font-size="10" text-anchor="middle">Output device</text></g><g id="node2" class="node"><title>input_1</title><polygon fill="#2980b9" stroke="#2980b9" points="300.526 -90 224.526 -90 224.526 -54 300.526 -54 300.526 -90"/><text x="262.526" y="-69.5" fill="#fff" font-family="Arial" font-size="10" text-anchor="middle">Input device 1</text></g><g id="node4" class="node"><title>tool</title><ellipse cx="150.263" cy="-45" fill="#9ec6e0" stroke="#9ec6e0" rx="38.028" ry="18"/><text x="150.263" y="-42.5" fill="#fff" font-family="Arial" font-size="10" text-anchor="middle">source tool</text></g><g id="edge1" class="edge"><title>input_1-&gt;tool</title><path fill="none" stroke="#000" d="M224.503,-62.9343C214.837,-60.5674 204.336,-57.9959 194.383,-55.5588"/><polygon fill="#000" stroke="#000" points="195.21 -52.158 184.665 -53.179 193.545 -58.957 195.21 -52.158"/></g><g id="node3" class="node"><title>input_2</title><polygon fill="#2980b9" stroke="#2980b9" points="300.526 -36 224.526 -36 224.526 0 300.526 0 300.526 -36"/><text x="262.526" y="-15.5" fill="#fff" font-family="Arial" font-size="10" text-anchor="middle">Input device 2</text></g><g id="edge2" class="edge"><title>input_2-&gt;tool</title><path fill="none" stroke="#000" d="M224.503,-27.0657C214.837,-29.4326 204.336,-32.0041 194.383,-34.4412"/><polygon fill="#000" stroke="#000" points="193.545 -31.043 184.665 -36.821 195.21 -37.842 193.545 -31.043"/></g><g id="edge3" class="edge"><title>tool-&gt;output</title><path fill="none" stroke="#000" d="M111.933,-45C103.76,-45 95.0029,-45 86.493,-45"/><polygon fill="#000" stroke="#000" points="86.292 -41.5 76.292 -45 86.292 -48.5 86.292 -41.5"/></g></g></svg>