<svg xmlns="http://www.w3.org/2000/svg" xmlns:xlink="http://www.w3.org/1999/xlink" width="344" height="98pt" viewBox="0 0 258.46 98"><g id="graph0" class="graph" transform="scale(1 1) rotate(0) translate(4 94)"><title>%3</title><polygon fill="#fff" stroke="none" points="-4 4 -4 -94 254.462 -94 254.462 4 -4 4"/><g id="node1" class="node"><title>LED</title><polygon fill="#2980b9" stroke="#2980b9" points="54 -63 0 -63 0 -27 54 -27 54 -63"/><text x="27" y="-42.5" fill="#fff" font-family="Arial" font-size="10" text-anchor="middle">LED</text></g><g id="node2" class="node"><title>button_a</title><polygon fill="#2980b9" stroke="#2980b9" points="250.462 -90 195.462 -90 195.462 -54 250.462 -54 250.462 -90"/><text x="222.962" y="-69.5" fill="#fff" font-family="Arial" font-size="10" text-anchor="middle">Button A</text></g><g id="node4" class="node"><title>all_values</title><ellipse cx="124.731" cy="-45" fill="#9ec6e0" stroke="#9ec6e0" rx="34.964" ry="18"/><text x="124.731" y="-42.5" fill="#fff" font-family="Arial" font-size="10" text-anchor="middle">all_values</text></g><g id="edge1" class="edge"><title>button_a-&gt;all_values</title><path fill="none" stroke="#000" d="M195.412,-64.5507C186.149,-61.9517 175.542,-58.9756 165.444,-56.1425"/><polygon fill="#000" stroke="#000" points="166.159 -52.708 155.585 -53.376 164.268 -59.448 166.159 -52.708"/></g><g id="node3" class="node"><title>button_b</title><polygon fill="#2980b9" stroke="#2980b9" points="250.462 -36 195.462 -36 195.462 0 250.462 0 250.462 -36"/><text x="222.962" y="-15.5" fill="#fff" font-family="Arial" font-size="10" text-anchor="middle">Button B</text></g><g id="edge2" class="edge"><title>button_b-&gt;all_values</title><path fill="none" stroke="#000" d="M195.412,-25.4493C186.149,-28.0483 175.542,-31.0244 165.444,-33.8575"/><polygon fill="#000" stroke="#000" points="164.268 -30.552 155.585 -36.624 166.159 -37.292 164.268 -30.552"/></g><g id="edge3" class="edge"><title>all_values-&gt;LED</title><path fill="none" stroke="#000" d="M89.9799,-45C81.7286,-45 72.8627,-45 64.4898,-45"/><polygon fill="#000" stroke="#000" points="64.231 -41.5 54.231 -45 64.231 -48.5 64.231 -41.5"/></g></g></svg>