<svg xmlns="http://www.w3.org/2000/svg" xmlns:xlink="http://www.w3.org/1999/xlink" width="540" height="98pt" viewBox="0 0 404.52 98"><g id="graph0" class="graph" transform="scale(1 1) rotate(0) translate(4 94)"><title>%3</title><polygon fill="#fff" stroke="none" points="-4 4 -4 -94 400.52 -94 400.52 4 -4 4"/><g id="node1" class="node"><title>led</title><polygon fill="#2980b9" stroke="#2980b9" points="69 -63 0 -63 0 -27 69 -27 69 -63"/><text x="34.5" y="-42.5" fill="#fff" font-family="Arial" font-size="10" text-anchor="middle">Garden light</text></g><g id="node2" class="node"><title>light</title><polygon fill="#2980b9" stroke="#2980b9" points="396.52 -36 326.52 -36 326.52 0 396.52 0 396.52 -36"/><text x="361.52" y="-15.5" fill="#fff" font-family="Arial" font-size="10" text-anchor="middle">Light sensor</text></g><g id="node4" class="node"><title>booleanized</title><ellipse cx="250.491" cy="-18" fill="#9ec6e0" stroke="#9ec6e0" rx="40.058" ry="18"/><text x="250.491" y="-15.5" fill="#fff" font-family="Arial" font-size="10" text-anchor="middle">booleanized</text></g><g id="edge4" class="edge"><title>light-&gt;booleanized</title><path fill="none" stroke="#000" d="M326.322,-18C318.33,-18 309.659,-18 301.147,-18"/><polygon fill="#000" stroke="#000" points="300.899 -14.5 290.899 -18 300.899 -21.5 300.899 -14.5"/></g><g id="node3" class="node"><title>motion</title><polygon fill="#2980b9" stroke="#2980b9" points="289.491 -90 211.491 -90 211.491 -54 289.491 -54 289.491 -90"/><text x="250.491" y="-69.5" fill="#fff" font-family="Arial" font-size="10" text-anchor="middle">Motion sensor</text></g><g id="node5" class="node"><title>all_values</title><ellipse cx="139.731" cy="-45" fill="#9ec6e0" stroke="#9ec6e0" rx="34.964" ry="18"/><text x="139.731" y="-42.5" fill="#fff" font-family="Arial" font-size="10" text-anchor="middle">all_values</text></g><g id="edge3" class="edge"><title>motion-&gt;all_values</title><path fill="none" stroke="#000" d="M211.452,-62.5567C201.723,-60.1414 191.224,-57.5351 181.37,-55.0887"/><polygon fill="#000" stroke="#000" points="181.942 -51.624 171.393 -52.612 180.255 -58.418 181.942 -51.624"/></g><g id="edge2" class="edge"><title>booleanized-&gt;all_values</title><path fill="none" stroke="#000" d="M215.079,-26.543C204.311,-29.2162 192.329,-32.1906 181.185,-34.9573"/><polygon fill="#000" stroke="#000" points="180.106 -31.619 171.244 -37.425 181.793 -38.413 180.106 -31.619"/></g><g id="edge1" class="edge"><title>all_values-&gt;led</title><path fill="none" stroke="#000" d="M104.929,-45C96.7357,-45 87.8594,-45 79.2789,-45"/><polygon fill="#000" stroke="#000" points="79.025 -41.5 69.025 -45 79.025 -48.5 79.025 -41.5"/></g></g></svg>