<svg xmlns="http://www.w3.org/2000/svg" xmlns:xlink="http://www.w3.org/1999/xlink" width="250pt" height="44pt" viewBox="0 0 250.4 44"><g id="graph0" class="graph" transform="scale(1 1) rotate(0) translate(4 40)"><title>%3</title><polygon fill="#fff" stroke="none" points="-4 4 -4 -40 246.398 -40 246.398 4 -4 4"/><g id="node1" class="node"><title>LED</title><polygon fill="#2980b9" stroke="#2980b9" points="54 -36 0 -36 0 0 54 0 54 -36"/><text x="27" y="-15.5" fill="#fff" font-family="Arial" font-size="10" text-anchor="middle">LED</text></g><g id="node2" class="node"><title>Button</title><polygon fill="#2980b9" stroke="#2980b9" points="242.398 -36 188.398 -36 188.398 0 242.398 0 242.398 -36"/><text x="215.398" y="-15.5" fill="#fff" font-family="Arial" font-size="10" text-anchor="middle">Button</text></g><g id="node3" class="node"><title>opposite</title><ellipse cx="121.199" cy="-18" fill="#9ec6e0" stroke="#9ec6e0" rx="31.4" ry="18"/><text x="121.199" y="-15.5" fill="#fff" font-family="Arial" font-size="10" text-anchor="middle">opposite</text></g><g id="edge1" class="edge"><title>Button-&gt;opposite</title><path fill="none" stroke="#000" d="M188.224,-18C180.352,-18 171.519,-18 162.938,-18"/><polygon fill="#000" stroke="#000" points="162.676 -14.5 152.676 -18 162.676 -21.5 162.676 -14.5"/></g><g id="edge2" class="edge"><title>opposite-&gt;LED</title><path fill="none" stroke="#000" d="M89.7542,-18C81.5503,-18 72.5959,-18 64.115,-18"/><polygon fill="#000" stroke="#000" points="64.087 -14.5 54.087 -18 64.087 -21.5 64.087 -14.5"/></g></g></svg>