<svg xmlns="http://www.w3.org/2000/svg" xmlns:xlink="http://www.w3.org/1999/xlink" width="248pt" height="44pt" viewBox="0 0 248.04 44"><g id="graph0" class="graph" transform="scale(1 1) rotate(0) translate(4 40)"><title>%3</title><polygon fill="#fff" stroke="none" points="-4 4 -4 -40 244.044 -40 244.044 4 -4 4"/><g id="node1" class="node"><title>LED</title><polygon fill="#2980b9" stroke="#2980b9" points="54 -36 0 -36 0 0 54 0 54 -36"/><text x="27" y="-15.5" fill="#fff" font-family="Arial" font-size="10" text-anchor="middle">LED</text></g><g id="node2" class="node"><title>Button</title><polygon fill="#2980b9" stroke="#2980b9" points="240.044 -36 186.044 -36 186.044 0 240.044 0 240.044 -36"/><text x="213.044" y="-15.5" fill="#fff" font-family="Arial" font-size="10" text-anchor="middle">Button</text></g><g id="node3" class="node"><title>negated</title><ellipse cx="120.022" cy="-18" fill="#9ec6e0" stroke="#9ec6e0" rx="30.044" ry="18"/><text x="120.022" y="-15.5" fill="#fff" font-family="Arial" font-size="10" text-anchor="middle">negated</text></g><g id="edge1" class="edge"><title>Button-&gt;negated</title><path fill="none" stroke="#000" d="M185.716,-18C177.803,-18 168.942,-18 160.378,-18"/><polygon fill="#000" stroke="#000" points="160.162 -14.5 150.162 -18 160.162 -21.5 160.162 -14.5"/></g><g id="edge2" class="edge"><title>negated-&gt;LED</title><path fill="none" stroke="#000" d="M89.9717,-18C81.7603,-18 72.7226,-18 64.1483,-18"/><polygon fill="#000" stroke="#000" points="64.006 -14.5 54.006 -18 64.006 -21.5 64.006 -14.5"/></g></g></svg>