<svg xmlns="http://www.w3.org/2000/svg" xmlns:xlink="http://www.w3.org/1999/xlink" width="340" height="44pt" viewBox="0 0 255 44"><g id="graph0" class="graph" transform="scale(1 1) rotate(0) translate(4 40)"><title>%3</title><polygon fill="#fff" stroke="none" points="-4 4 -4 -40 251 -40 251 4 -4 4"/><g id="node1" class="node"><title>red</title><polygon fill="#2980b9" stroke="#2980b9" points="157 -36 101 -36 101 0 157 0 157 -36"/><text x="129" y="-15.5" fill="#fff" font-family="Arial" font-size="10" text-anchor="middle">Red LED</text></g><g id="node2" class="node"><title>green</title><polygon fill="#2980b9" stroke="#2980b9" points="65 -36 0 -36 0 0 65 0 65 -36"/><text x="32.5" y="-15.5" fill="#fff" font-family="Arial" font-size="10" text-anchor="middle">Green LED</text></g><g id="edge2" class="edge"><title>red-&gt;green</title><path fill="none" stroke="#000" d="M100.92,-18C92.9231,-18 83.9772,-18 75.2817,-18"/><polygon fill="#000" stroke="#000" points="75.261 -14.5 65.261 -18 75.261 -21.5 75.261 -14.5"/></g><g id="node3" class="node"><title>Button</title><polygon fill="#2980b9" stroke="#2980b9" points="247 -36 193 -36 193 0 247 0 247 -36"/><text x="220" y="-15.5" fill="#fff" font-family="Arial" font-size="10" text-anchor="middle">Button</text></g><g id="edge1" class="edge"><title>Button-&gt;red</title><path fill="none" stroke="#000" d="M192.778,-18C184.832,-18 175.943,-18 167.412,-18"/><polygon fill="#000" stroke="#000" points="167.27 -14.5 157.27 -18 167.27 -21.5 167.27 -14.5"/></g></g></svg>