<svg xmlns="http://www.w3.org/2000/svg" xmlns:xlink="http://www.w3.org/1999/xlink" width="379pt" height="98pt" viewBox="0 0 379 98"><g id="graph0" class="graph" transform="scale(1 1) rotate(0) translate(4 94)"><title>%3</title><polygon fill="#fff" stroke="none" points="-4 4 -4 -94 375 -94 375 4 -4 4"/><g id="node1" class="node"><title>Robot</title><polygon fill="#2980b9" stroke="#2980b9" points="54 -63 0 -63 0 -27 54 -27 54 -63"/><text x="27" y="-42.5" fill="#fff" font-family="Arial" font-size="10" text-anchor="middle">Robot</text></g><g id="node2" class="node"><title>left</title><polygon fill="#2980b9" stroke="#2980b9" points="368 -90 273 -90 273 -54 368 -54 368 -90"/><text x="320.5" y="-69.5" fill="#fff" font-family="Arial" font-size="10" text-anchor="middle">Left potentiometer</text></g><g id="node5" class="node"><title>scaled_1</title><ellipse cx="207" cy="-72" fill="#9ec6e0" stroke="#9ec6e0" rx="27" ry="18"/><text x="207" y="-69.5" fill="#fff" font-family="Arial" font-size="10" text-anchor="middle">scaled</text></g><g id="edge1" class="edge"><title>left-&gt;scaled_1</title><path fill="none" stroke="#000" d="M272.86,-72C263.338,-72 253.452,-72 244.353,-72"/><polygon fill="#000" stroke="#000" points="244.102 -68.5 234.102 -72 244.102 -75.5 244.102 -68.5"/></g><g id="node3" class="node"><title>right</title><polygon fill="#2980b9" stroke="#2980b9" points="371 -36 270 -36 270 0 371 0 371 -36"/><text x="320.5" y="-15.5" fill="#fff" font-family="Arial" font-size="10" text-anchor="middle">Right potentiometer</text></g><g id="node6" class="node"><title>scaled_2</title><ellipse cx="207" cy="-18" fill="#9ec6e0" stroke="#9ec6e0" rx="27" ry="18"/><text x="207" y="-15.5" fill="#fff" font-family="Arial" font-size="10" text-anchor="middle">scaled</text></g><g id="edge2" class="edge"><title>right-&gt;scaled_2</title><path fill="none" stroke="#000" d="M269.945,-18C261.275,-18 252.403,-18 244.181,-18"/><polygon fill="#000" stroke="#000" points="244.179 -14.5 234.179 -18 244.179 -21.5 244.179 -14.5"/></g><g id="node4" class="node"><title>zip</title><ellipse cx="117" cy="-45" fill="#9ec6e0" stroke="#9ec6e0" rx="27" ry="18"/><text x="117" y="-42.5" fill="#fff" font-family="Arial" font-size="10" text-anchor="middle">zip</text></g><g id="edge5" class="edge"><title>zip-&gt;Robot</title><path fill="none" stroke="#000" d="M89.5971,-45C81.6068,-45 72.6894,-45 64.1759,-45"/><polygon fill="#000" stroke="#000" points="64.081 -41.5 54.081 -45 64.081 -48.5 64.081 -41.5"/></g><g id="edge3" class="edge"><title>scaled_1-&gt;zip</title><path fill="none" stroke="#000" d="M181.954,-64.6221C172.565,-61.7414 161.638,-58.3888 151.5,-55.2785"/><polygon fill="#000" stroke="#000" points="152.299 -51.863 141.713 -52.276 150.246 -58.555 152.299 -51.863"/></g><g id="edge4" class="edge"><title>scaled_2-&gt;zip</title><path fill="none" stroke="#000" d="M181.954,-25.3779C172.565,-28.2586 161.638,-31.6112 151.5,-34.7215"/><polygon fill="#000" stroke="#000" points="150.246 -31.445 141.713 -37.724 152.299 -38.137 150.246 -31.445"/></g></g></svg>