<svg xmlns="http://www.w3.org/2000/svg" xmlns:xlink="http://www.w3.org/1999/xlink" width="308pt" height="98pt" viewBox="0 0 307.99 98"><g id="graph0" class="graph" transform="scale(1 1) rotate(0) translate(4 94)"><title>%3</title><polygon fill="#fff" stroke="none" points="-4 4 -4 -94 303.994 -94 303.994 4 -4 4"/><g id="node1" class="node"><title>Robot</title><polygon fill="#2980b9" stroke="#2980b9" points="54 -63 0 -63 0 -27 54 -27 54 -63"/><text x="27" y="-42.5" fill="#fff" font-family="Arial" font-size="10" text-anchor="middle">Robot</text></g><g id="node2" class="node"><title>left</title><polygon fill="#2980b9" stroke="#2980b9" points="296.994 -90 201.994 -90 201.994 -54 296.994 -54 296.994 -90"/><text x="249.494" y="-69.5" fill="#fff" font-family="Arial" font-size="10" text-anchor="middle">Left potentiometer</text></g><g id="node4" class="node"><title>zip_values</title><ellipse cx="126.497" cy="-45" fill="#9ec6e0" stroke="#9ec6e0" rx="36.494" ry="18"/><text x="126.497" y="-42.5" fill="#fff" font-family="Arial" font-size="10" text-anchor="middle">zip_values</text></g><g id="edge1" class="edge"><title>left-&gt;zip_values</title><path fill="none" stroke="#000" d="M201.714,-61.5611C191.24,-59.2239 180.187,-56.7575 169.902,-54.4625"/><polygon fill="#000" stroke="#000" points="170.446 -50.998 159.923 -52.236 168.921 -57.83 170.446 -50.998"/></g><g id="node3" class="node"><title>right</title><polygon fill="#2980b9" stroke="#2980b9" points="299.994 -36 198.994 -36 198.994 0 299.994 0 299.994 -36"/><text x="249.494" y="-15.5" fill="#fff" font-family="Arial" font-size="10" text-anchor="middle">Right potentiometer</text></g><g id="edge2" class="edge"><title>right-&gt;zip_values</title><path fill="none" stroke="#000" d="M198.931,-29.0598C189.345,-31.1988 179.381,-33.4224 170.044,-35.5059"/><polygon fill="#000" stroke="#000" points="169.203 -32.107 160.206 -37.701 170.728 -38.939 169.203 -32.107"/></g><g id="edge3" class="edge"><title>zip_values-&gt;Robot</title><path fill="none" stroke="#000" d="M89.7464,-45C81.4925,-45 72.7022,-45 64.4201,-45"/><polygon fill="#000" stroke="#000" points="64.28 -41.5 54.28 -45 64.28 -48.5 64.28 -41.5"/></g></g></svg>