<svg xmlns="http://www.w3.org/2000/svg" xmlns:xlink="http://www.w3.org/1999/xlink" width="372" height="98pt" viewBox="0 0 278.99 98"><g id="graph0" class="graph" transform="scale(1 1) rotate(0) translate(4 94)"><title>%3</title><polygon fill="#fff" stroke="none" points="-4 4 -4 -94 274.994 -94 274.994 4 -4 4"/><g id="node1" class="node"><title>Motor</title><polygon fill="#2980b9" stroke="#2980b9" points="162 -63 108 -63 108 -27 162 -27 162 -63"/><text x="135" y="-42.5" fill="#fff" font-family="Arial" font-size="10" text-anchor="middle">Motor</text></g><g id="node2" class="node"><title>Servo</title><polygon fill="#2980b9" stroke="#2980b9" points="63 -90 9 -90 9 -54 63 -54 63 -90"/><text x="36" y="-69.5" fill="#fff" font-family="Arial" font-size="10" text-anchor="middle">Servo</text></g><g id="edge2" class="edge"><title>Motor-&gt;Servo</title><path fill="none" stroke="#000" d="M107.75,-52.3066C97.0751,-55.2781 84.5636,-58.7606 73.0549,-61.9641"/><polygon fill="#000" stroke="#000" points="71.966 -58.634 63.271 -64.688 73.843 -65.378 71.966 -58.634"/></g><g id="node3" class="node"><title>buzzer</title><polygon fill="#2980b9" stroke="#2980b9" points="72 -36 0 -36 0 0 72 0 72 -36"/><text x="36" y="-15.5" fill="#fff" font-family="Arial" font-size="10" text-anchor="middle">Tonal buzzer</text></g><g id="edge3" class="edge"><title>Motor-&gt;buzzer</title><path fill="none" stroke="#000" d="M107.75,-37.6934C99.7604,-35.4694 90.7417,-32.959 81.8847,-30.4937"/><polygon fill="#000" stroke="#000" points="82.589 -27.057 72.017 -27.747 80.712 -33.8 82.589 -27.057"/></g><g id="node4" class="node"><title>sin_values</title><ellipse cx="234.497" cy="-45" fill="#9ec6e0" stroke="#9ec6e0" rx="36.494" ry="18"/><text x="234.497" y="-42.5" fill="#fff" font-family="Arial" font-size="10" text-anchor="middle">sin_values</text></g><g id="edge1" class="edge"><title>sin_values-&gt;Motor</title><path fill="none" stroke="#000" d="M197.746,-45C189.492,-45 180.702,-45 172.42,-45"/><polygon fill="#000" stroke="#000" points="172.28 -41.5 162.28 -45 172.28 -48.5 172.28 -41.5"/></g></g></svg>