<svg xmlns="http://www.w3.org/2000/svg" xmlns:xlink="http://www.w3.org/1999/xlink" width="301pt" height="44pt" viewBox="0 0 300.53 44"><g id="graph0" class="graph" transform="scale(1 1) rotate(0) translate(4 40)"><title>%3</title><polygon fill="#fff" stroke="none" points="-4 4 -4 -40 296.526 -40 296.526 4 -4 4"/><g id="node1" class="node"><title>output</title><polygon fill="#2980b9" stroke="#2980b9" points="76 -36 0 -36 0 0 76 0 76 -36"/><text x="38" y="-15.5" fill="#fff" font-family="Arial" font-size="10" text-anchor="middle">Output device</text></g><g id="node2" class="node"><title>input</title><polygon fill="#2980b9" stroke="#2980b9" points="292.526 -36 224.526 -36 224.526 0 292.526 0 292.526 -36"/><text x="258.526" y="-15.5" fill="#fff" font-family="Arial" font-size="10" text-anchor="middle">Input device</text></g><g id="node3" class="node"><title>tool</title><ellipse cx="150.263" cy="-18" fill="#9ec6e0" stroke="#9ec6e0" rx="38.028" ry="18"/><text x="150.263" y="-15.5" fill="#fff" font-family="Arial" font-size="10" text-anchor="middle">source tool</text></g><g id="edge1" class="edge"><title>input-&gt;tool</title><path fill="none" stroke="#000" d="M224.486,-18C216.341,-18 207.458,-18 198.776,-18"/><polygon fill="#000" stroke="#000" points="198.735 -14.5 188.734 -18 198.734 -21.5 198.735 -14.5"/></g><g id="edge2" class="edge"><title>tool-&gt;output</title><path fill="none" stroke="#000" d="M111.933,-18C103.76,-18 95.0029,-18 86.493,-18"/><polygon fill="#000" stroke="#000" points="86.292 -14.5 76.292 -18 86.292 -21.5 86.292 -14.5"/></g></g></svg>