<svg xmlns="http://www.w3.org/2000/svg" xmlns:xlink="http://www.w3.org/1999/xlink" width="332pt" height="44pt" viewBox="0 0 332.31 44"><g id="graph0" class="graph" transform="scale(1 1) rotate(0) translate(4 40)"><title>%3</title><polygon fill="#fff" stroke="none" points="-4 4 -4 -40 328.314 -40 328.314 4 -4 4"/><g id="node1" class="node"><title>output</title><polygon fill="#2980b9" stroke="#2980b9" points="76 -36 0 -36 0 0 76 0 76 -36"/><text x="38" y="-15.5" fill="#fff" font-family="Arial" font-size="10" text-anchor="middle">Output device</text></g><g id="node2" class="node"><title>input</title><polygon fill="#2980b9" stroke="#2980b9" points="324.314 -36 256.314 -36 256.314 0 324.314 0 324.314 -36"/><text x="290.314" y="-15.5" fill="#fff" font-family="Arial" font-size="10" text-anchor="middle">Input device</text></g><g id="node3" class="node"><title>gen</title><ellipse cx="166.157" cy="-18" fill="#9ec6e0" stroke="#9ec6e0" rx="54.314" ry="18"/><text x="166.157" y="-15.5" fill="#fff" font-family="Arial" font-size="10" text-anchor="middle">custom generator</text></g><g id="edge1" class="edge"><title>input-&gt;gen</title><path fill="none" stroke="#000" d="M256.257,-18C248.248,-18 239.418,-18 230.524,-18"/><polygon fill="#000" stroke="#000" points="230.495 -14.5 220.495 -18 230.495 -21.5 230.495 -14.5"/></g><g id="edge2" class="edge"><title>gen-&gt;output</title><path fill="none" stroke="#000" d="M111.655,-18C103.25,-18 94.6127,-18 86.3589,-18"/><polygon fill="#000" stroke="#000" points="86.156 -14.5 76.156 -18 86.156 -21.5 86.156 -14.5"/></g></g></svg>