<svg xmlns="http://www.w3.org/2000/svg" xmlns:xlink="http://www.w3.org/1999/xlink" width="404" height="502pt" viewBox="0 0 302.5 502"><g id="graph0" class="graph" transform="scale(1 1) rotate(0) translate(4 498)"><title>device_pins</title><polygon fill="#fff" stroke="transparent" points="-4 4 -4 -498 298.5 -498 298.5 4 -4 4"/><g id="node1" class="node"><title>constructor</title><polygon fill="#603" stroke="#603" points="233.5 -494 137.5 -494 137.5 -458 233.5 -458 233.5 -494"/><text x="185.5" y="-479" fill="#fff" font-family="Arial" font-size="10" text-anchor="middle">LED(pin_spec, ...,</text><text x="185.5" y="-468" fill="#fff" font-family="Arial" font-size="10" text-anchor="middle">pin_factory=None)</text></g><g id="node2" class="node"><title>pin_factory_kwarg</title><polygon fill="#603" stroke="#603" points="185.5 -421 120.5 -391 185.5 -361 250.5 -391 185.5 -421"/><text x="185.5" y="-394" fill="#fff" font-family="Arial" font-size="10" text-anchor="middle">pin_factory</text><text x="185.5" y="-383" fill="#fff" font-family="Arial" font-size="10" text-anchor="middle">is None?</text></g><g id="edge1" class="edge"><title>constructor-&gt;pin_factory_kwarg</title><path fill="none" stroke="#000" d="M185.5,-457.9737C185.5,-450.1004 185.5,-440.5272 185.5,-431.1108"/><polygon fill="#000" stroke="#000" points="189 -431.043 185.5 -421.043 182 -431.043 189 -431.043"/></g><g id="node3" class="node"><title>device_pin_factory</title><polygon fill="#603" stroke="#603" points="122.5 -314 24.5 -284 122.5 -254 220.5 -284 122.5 -314"/><text x="122.5" y="-287" fill="#fff" font-family="Arial" font-size="10" text-anchor="middle">Device.pin_factory</text><text x="122.5" y="-276" fill="#fff" font-family="Arial" font-size="10" text-anchor="middle">is None?</text></g><g id="edge2" class="edge"><title>pin_factory_kwarg-&gt;device_pin_factory</title><path fill="none" stroke="#000" d="M171.5183,-367.2532C163.094,-352.9453 152.2186,-334.4744 142.8527,-318.5672"/><polygon fill="#000" stroke="#000" points="145.632 -316.39 137.542 -309.548 139.6 -319.942 145.632 -316.39"/><text x="164.5" y="-335" fill="#000" font-family="Arial" font-size="10" text-anchor="middle">yes</text></g><g id="node6" class="node"><title>override_factory</title><polygon fill="#603" stroke="#603" points="294.5 -236 202.5 -236 202.5 -200 294.5 -200 294.5 -236"/><text x="248.5" y="-221" fill="#fff" font-family="Arial" font-size="10" text-anchor="middle">self.pin_factory =</text><text x="248.5" y="-210" fill="#fff" font-family="Arial" font-size="10" text-anchor="middle">pin_factory</text></g><g id="edge3" class="edge"><title>pin_factory_kwarg-&gt;override_factory</title><path fill="none" stroke="#000" d="M201.252,-368.041C210.7422,-353.2184 222.3386,-333.1845 229.5,-314 237.7218,-291.9747 242.6066,-265.7116 245.3597,-246.2272"/><polygon fill="#000" stroke="#000" points="248.849 -246.54 246.678 -236.17 241.908 -245.63 248.849 -246.54"/><text x="226" y="-335" fill="#000" font-family="Arial" font-size="10" text-anchor="middle">no</text></g><g id="node4" class="node"><title>set_default_factory</title><polygon fill="#603" stroke="#603" points="143 -182 0 -182 0 -146 143 -146 143 -182"/><text x="71.5" y="-167" fill="#fff" font-family="Arial" font-size="10" text-anchor="middle">Device.pin_factory =</text><text x="71.5" y="-156" fill="#fff" font-family="Arial" font-size="10" text-anchor="middle">Device._default_pin_factory()</text></g><g id="edge4" class="edge"><title>device_pin_factory-&gt;set_default_factory</title><path fill="none" stroke="#000" d="M111.1814,-257.3681C102.8468,-237.7572 91.5485,-211.1728 83.1391,-191.3861"/><polygon fill="#000" stroke="#000" points="86.285 -189.84 79.153 -182.006 79.843 -192.578 86.285 -189.84"/><text x="110.5" y="-215.5" fill="#000" font-family="Arial" font-size="10" text-anchor="middle">yes</text></g><g id="node5" class="node"><title>get_default_factory</title><polygon fill="#603" stroke="#603" points="220.5 -109 122.5 -109 122.5 -73 220.5 -73 220.5 -109"/><text x="171.5" y="-94" fill="#fff" font-family="Arial" font-size="10" text-anchor="middle">self.pin_factory =</text><text x="171.5" y="-83" fill="#fff" font-family="Arial" font-size="10" text-anchor="middle">Device.pin_factory</text></g><g id="edge5" class="edge"><title>device_pin_factory-&gt;get_default_factory</title><path fill="none" stroke="#000" d="M130.833,-256.4154C136.8921,-235.9615 145.1166,-207.3511 151.5,-182 156.7828,-161.0199 162.0048,-137.1225 165.7875,-119.083"/><polygon fill="#000" stroke="#000" points="169.232 -119.708 167.838 -109.205 162.379 -118.285 169.232 -119.708"/><text x="166" y="-161.5" fill="#000" font-family="Arial" font-size="10" text-anchor="middle">no</text></g><g id="edge6" class="edge"><title>set_default_factory-&gt;get_default_factory</title><path fill="none" stroke="#000" d="M96.2191,-145.9551C108.9597,-136.6545 124.6721,-125.1844 138.4408,-115.1332"/><polygon fill="#000" stroke="#000" points="140.706 -117.813 146.719 -109.09 136.578 -112.16 140.706 -117.813"/></g><g id="node7" class="node"><title>factory_pin</title><polygon fill="#603" stroke="#603" points="281.5 -36 137.5 -36 137.5 0 281.5 0 281.5 -36"/><text x="209.5" y="-21" fill="#fff" font-family="Arial" font-size="10" text-anchor="middle">self.pin =</text><text x="209.5" y="-10" fill="#fff" font-family="Arial" font-size="10" text-anchor="middle">self.pin_factory.pin(pin_spec)</text></g><g id="edge7" class="edge"><title>get_default_factory-&gt;factory_pin</title><path fill="none" stroke="#000" d="M180.8933,-72.9551C185.2779,-64.5319 190.5889,-54.3292 195.4386,-45.0128"/><polygon fill="#000" stroke="#000" points="198.57 -46.577 200.083 -36.09 192.361 -43.344 198.57 -46.577"/></g><g id="edge8" class="edge"><title>override_factory-&gt;factory_pin</title><path fill="none" stroke="#000" d="M247.4031,-199.9093C245.441,-172.2387 240.4626,-117.8884 229.5,-73 227.2823,-63.9194 224.0756,-54.2622 220.8771,-45.6156"/><polygon fill="#000" stroke="#000" points="224.044 -44.1 217.186 -36.025 217.511 -46.614 224.044 -44.1"/></g></g></svg>