<svg xmlns="http://www.w3.org/2000/svg" xmlns:xlink="http://www.w3.org/1999/xlink" width="482pt" height="260pt" viewBox="0 0 482 260"><g id="graph0" class="graph" transform="scale(1 1) rotate(0) translate(4 256)"><title>classes</title><polygon fill="#fff" stroke="transparent" points="-4 4 -4 -256 478 -256 478 4 -4 4"/><g id="node1" class="node"><title>GPIODevice</title><polygon fill="#9ec6e0" stroke="#9ec6e0" points="74 -103 0 -103 0 -67 74 -67 74 -103"/><text x="37" y="-82.5" fill="#000" font-family="Sans" font-size="10" text-anchor="middle">GPIODevice</text></g><g id="node2" class="node"><title>SmoothedInputDevice</title><polygon fill="#9ec6e0" stroke="#9ec6e0" points="346 -144 221 -144 221 -108 346 -108 346 -144"/><text x="283.5" y="-123.5" fill="#000" font-family="Sans" font-size="10" text-anchor="middle">SmoothedInputDevice</text></g><g id="node5" class="node"><title>InputDevice</title><polygon fill="#2980b9" stroke="#2980b9" points="185 -103 110 -103 110 -67 185 -67 185 -103"/><text x="147.5" y="-82.5" fill="#fff" font-family="Sans" font-size="10" text-anchor="middle">InputDevice</text></g><g id="edge8" class="edge"><title>SmoothedInputDevice-&gt;InputDevice</title><path fill="none" stroke="#000" d="M223.34,-107.9C213.76,-104.97 203.97,-101.97 194.75,-99.15"/><polygon fill="#000" stroke="#000" points="195.61 -95.75 185.02 -96.17 193.56 -102.45 195.61 -95.75"/></g><g id="node3" class="node"><title>Button</title><polygon fill="#2980b9" stroke="#2980b9" points="455 -36 401 -36 401 0 455 0 455 -36"/><text x="428" y="-15.5" fill="#fff" font-family="Sans" font-size="10" text-anchor="middle">Button</text></g><g id="node4" class="node"><title>DigitalInputDevice</title><polygon fill="#2980b9" stroke="#2980b9" points="337 -63 230 -63 230 -27 337 -27 337 -63"/><text x="283.5" y="-42.5" fill="#fff" font-family="Sans" font-size="10" text-anchor="middle">DigitalInputDevice</text></g><g id="edge1" class="edge"><title>Button-&gt;DigitalInputDevice</title><path fill="none" stroke="#000" d="M400.86,-22.95C385.74,-25.82 366.02,-29.55 347.12,-33.14"/><polygon fill="#000" stroke="#000" points="346.21 -29.75 337.04 -35.05 347.51 -36.62 346.21 -29.75"/></g><g id="edge2" class="edge"><title>DigitalInputDevice-&gt;InputDevice</title><path fill="none" stroke="#000" d="M229.92,-60.69C218.36,-64.15 206.18,-67.78 194.88,-71.16"/><polygon fill="#000" stroke="#000" points="193.79 -67.83 185.21 -74.04 195.79 -74.54 193.79 -67.83"/></g><g id="edge4" class="edge"><title>InputDevice-&gt;GPIODevice</title><path fill="none" stroke="#000" d="M109.77,-85C101.64,-85 92.92,-85 84.46,-85"/><polygon fill="#000" stroke="#000" points="84.33 -81.5 74.33 -85 84.33 -88.5 84.33 -81.5"/></g><g id="node6" class="node"><title>DistanceSensor</title><polygon fill="#2980b9" stroke="#2980b9" points="474 -252 382 -252 382 -216 474 -216 474 -252"/><text x="428" y="-231.5" fill="#fff" font-family="Sans" font-size="10" text-anchor="middle">DistanceSensor</text></g><g id="edge3" class="edge"><title>DistanceSensor-&gt;SmoothedInputDevice</title><path fill="none" stroke="#000" d="M395.14,-215.71C390.66,-212.9 386.16,-209.95 382,-207 357.34,-189.51 331.07,-167.47 312.02,-150.79"/><polygon fill="#000" stroke="#000" points="314.14 -148 304.32 -144.01 309.51 -153.24 314.14 -148"/></g><g id="node7" class="node"><title>LightSensor</title><polygon fill="#2980b9" stroke="#2980b9" points="465 -198 391 -198 391 -162 465 -162 465 -198"/><text x="428" y="-177.5" fill="#fff" font-family="Sans" font-size="10" text-anchor="middle">LightSensor</text></g><g id="edge5" class="edge"><title>LightSensor-&gt;SmoothedInputDevice</title><path fill="none" stroke="#000" d="M390.67,-166.23C375.78,-160.59 358.19,-153.93 341.65,-147.66"/><polygon fill="#000" stroke="#000" points="342.66 -144.3 332.07 -144.03 340.18 -150.84 342.66 -144.3"/></g><g id="node8" class="node"><title>LineSensor</title><polygon fill="#2980b9" stroke="#2980b9" points="463 -144 393 -144 393 -108 463 -108 463 -144"/><text x="428" y="-123.5" fill="#fff" font-family="Sans" font-size="10" text-anchor="middle">LineSensor</text></g><g id="edge6" class="edge"><title>LineSensor-&gt;SmoothedInputDevice</title><path fill="none" stroke="#000" d="M392.87,-126C381.82,-126 369.13,-126 356.4,-126"/><polygon fill="#000" stroke="#000" points="356.22 -122.5 346.22 -126 356.22 -129.5 356.22 -122.5"/></g><g id="node9" class="node"><title>MotionSensor</title><polygon fill="#2980b9" stroke="#2980b9" points="469.5 -90 386.5 -90 386.5 -54 469.5 -54 469.5 -90"/><text x="428" y="-69.5" fill="#fff" font-family="Sans" font-size="10" text-anchor="middle">MotionSensor</text></g><g id="edge7" class="edge"><title>MotionSensor-&gt;SmoothedInputDevice</title><path fill="none" stroke="#000" d="M386.17,-87.47C372.33,-92.72 356.62,-98.67 341.76,-104.3"/><polygon fill="#000" stroke="#000" points="340.25 -101.13 332.14 -107.95 342.73 -107.68 340.25 -101.13"/></g></g></svg>