<svg xmlns="http://www.w3.org/2000/svg" xmlns:xlink="http://www.w3.org/1999/xlink" width="632" height="260pt" viewBox="0 0 474 260"><g id="graph0" class="graph" transform="scale(1 1) rotate(0) translate(4 256)"><title>classes</title><polygon fill="#fff" stroke="transparent" points="-4 4 -4 -256 470 -256 470 4 -4 4"/><g id="node1" class="node"><title>Device</title><polygon fill="#9ec6e0" stroke="#9ec6e0" points="54 -144 0 -144 0 -108 54 -108 54 -144"/><text x="27" y="-123.5" fill="#000" font-family="Sans" font-size="10" text-anchor="middle">Device</text></g><g id="node2" class="node"><title>InternalDevice</title><polygon fill="#9ec6e0" stroke="#9ec6e0" points="178 -144 90 -144 90 -108 178 -108 178 -144"/><text x="134" y="-123.5" fill="#000" font-family="Sans" font-size="10" text-anchor="middle">InternalDevice</text></g><g id="edge3" class="edge"><title>InternalDevice-&gt;Device</title><path fill="none" stroke="#000" d="M89.99,-126C81.47,-126 72.6,-126 64.33,-126"/><polygon fill="#000" stroke="#000" points="64.24 -122.5 54.24 -126 64.24 -129.5 64.24 -122.5"/></g><g id="node3" class="node"><title>CPUTemperature</title><polygon fill="#2980b9" stroke="#2980b9" points="466 -252 368 -252 368 -216 466 -216 466 -252"/><text x="417" y="-231.5" fill="#fff" font-family="Sans" font-size="10" text-anchor="middle">CPUTemperature</text></g><g id="node4" class="node"><title>PolledInternalDevice</title><polygon fill="#2980b9" stroke="#2980b9" points="332 -144 214 -144 214 -108 332 -108 332 -144"/><text x="273" y="-123.5" fill="#fff" font-family="Sans" font-size="10" text-anchor="middle">PolledInternalDevice</text></g><g id="edge1" class="edge"><title>CPUTemperature-&gt;PolledInternalDevice</title><path fill="none" stroke="#000" d="M381.91,-215.94C377.15,-213.1 372.38,-210.08 368,-207 343.77,-190 318.48,-167.92 300.24,-151.11"/><polygon fill="#000" stroke="#000" points="302.58 -148.51 292.88 -144.26 297.81 -153.63 302.58 -148.51"/></g><g id="edge6" class="edge"><title>PolledInternalDevice-&gt;InternalDevice</title><path fill="none" stroke="#000" d="M213.9,-126C205.4,-126 196.67,-126 188.27,-126"/><polygon fill="#000" stroke="#000" points="188.22 -122.5 178.22 -126 188.22 -129.5 188.22 -122.5"/></g><g id="node5" class="node"><title>DiskUsage</title><polygon fill="#2980b9" stroke="#2980b9" points="451.5 -198 382.5 -198 382.5 -162 451.5 -162 451.5 -198"/><text x="417" y="-177.5" fill="#fff" font-family="Sans" font-size="10" text-anchor="middle">DiskUsage</text></g><g id="edge2" class="edge"><title>DiskUsage-&gt;PolledInternalDevice</title><path fill="none" stroke="#000" d="M382.35,-167.2C366.99,-161.36 348.36,-154.28 330.92,-147.65"/><polygon fill="#000" stroke="#000" points="331.97 -144.3 321.38 -144.02 329.48 -150.84 331.97 -144.3"/></g><g id="node6" class="node"><title>LoadAverage</title><polygon fill="#2980b9" stroke="#2980b9" points="457 -144 377 -144 377 -108 457 -108 457 -144"/><text x="417" y="-123.5" fill="#fff" font-family="Sans" font-size="10" text-anchor="middle">LoadAverage</text></g><g id="edge4" class="edge"><title>LoadAverage-&gt;PolledInternalDevice</title><path fill="none" stroke="#000" d="M376.82,-126C366.16,-126 354.28,-126 342.5,-126"/><polygon fill="#000" stroke="#000" points="342.2 -122.5 332.2 -126 342.2 -129.5 342.2 -122.5"/></g><g id="node7" class="node"><title>PingServer</title><polygon fill="#2980b9" stroke="#2980b9" points="451.5 -90 382.5 -90 382.5 -54 451.5 -54 451.5 -90"/><text x="417" y="-69.5" fill="#fff" font-family="Sans" font-size="10" text-anchor="middle">PingServer</text></g><g id="edge5" class="edge"><title>PingServer-&gt;PolledInternalDevice</title><path fill="none" stroke="#000" d="M382.35,-84.8C366.99,-90.64 348.36,-97.72 330.92,-104.35"/><polygon fill="#000" stroke="#000" points="329.48 -101.16 321.38 -107.98 331.97 -107.7 329.48 -101.16"/></g><g id="node8" class="node"><title>TimeOfDay</title><polygon fill="#2980b9" stroke="#2980b9" points="453 -36 381 -36 381 0 453 0 453 -36"/><text x="417" y="-15.5" fill="#fff" font-family="Sans" font-size="10" text-anchor="middle">TimeOfDay</text></g><g id="edge7" class="edge"><title>TimeOfDay-&gt;PolledInternalDevice</title><path fill="none" stroke="#000" d="M381.91,-36.06C377.15,-38.9 372.38,-41.92 368,-45 343.77,-62 318.48,-84.08 300.24,-100.89"/><polygon fill="#000" stroke="#000" points="297.81 -98.37 292.88 -107.74 302.58 -103.49 297.81 -98.37"/></g></g></svg>